<?xml version="1.0" standalone="no"?><!DOCTYPE svg PUBLIC "-//W3C//DTD SVG 1.1//EN" "http://www.w3.org/Graphics/SVG/1.1/DTD/svg11.dtd"><svg t="1605264101348" class="icon" viewBox="0 0 1024 1024" version="1.1" xmlns="http://www.w3.org/2000/svg" p-id="2901" data-spm-anchor-id="a313x.7781069.0.i30" width="200" height="200" xmlns:xlink="http://www.w3.org/1999/xlink"><defs><style type="text/css"></style></defs><path d="M522.88 163.84c10.24 8.96 26.88 21.12 48.64 32 28.8 14.08 38.4 10.24 55.04 23.68 21.12 16.64 36.48 46.08 28.8 69.12-2.56 7.68-5.12 5.76-17.92 23.04-12.16 17.28-32 43.52-29.44 72.32 0.64 8.32 2.56 9.6 1.92 17.28-1.28 17.28-12.8 30.08-21.76 38.4 15.36-7.04 37.12-19.84 56.96-40.96 24.32-26.88 20.48-39.68 35.84-45.44 30.08-11.52 54.4 33.28 116.48 34.56 9.6 0 16-0.64 26.24 2.56 24.32 8.32 38.4 31.36 46.72 49.92-4.48 12.8-11.52 32-20.48 53.76-18.56 44.16-27.52 65.92-37.76 76.8-35.84 37.12-97.92 38.4-137.6 28.16-17.92-3.84-31.36-10.24-39.68-14.72 35.84 60.16 57.6 71.68 71.68 69.12 5.12-0.64 8.32-3.2 16.64-3.84 17.92-1.92 42.88 6.4 49.92 22.4 7.68 17.92-15.36 28.8-15.36 62.08 0 17.92 6.4 22.4 10.88 43.52 3.2 16.64 5.12 41.6-5.12 75.52-48 8.32-80.64 0-101.12-8.32-10.88-4.48-10.88-5.76-55.04-32-57.6-33.28-62.72-33.92-71.68-44.16-12.16-13.44-28.16-40.32-23.68-95.36 0 102.4-23.04 135.68-46.08 145.92-22.4 10.24-35.84-5.12-77.44 1.28-64 9.6-92.8 55.04-110.72 42.88-15.36-10.24 6.4-44.8-16.64-74.88-10.24-13.44-23.68-17.92-25.6-32.64-1.28-11.52 5.12-21.76 10.24-28.16 7.68-8.96 18.56-23.68 27.52-42.88 8.32-17.92 10.24-30.08 12.16-37.12 6.4-19.84 28.8-44.8 103.04-63.36-66.56 11.52-94.72 8.96-106.24 3.2-1.28-0.64-5.76-3.2-12.8-5.12-16-4.48-27.52-0.64-36.48-0.64-21.12 0-44.16-18.56-51.84-37.76-12.16-28.8 12.8-52.48-3.2-72.32-5.12-6.4-12.16-8.32-21.76-21.76-5.76-7.68-8.96-14.72-10.88-19.2 4.48-1.28 30.72-9.6 49.92-22.4 8.96-5.76 16-12.16 16-12.16 6.4-5.12 9.6-9.6 11.52-11.52 13.44-14.08 45.44-23.68 71.68-14.72 9.6 3.2 7.04 5.12 19.2 9.6 21.76 8.32 38.4 6.4 48.64 7.04 16 1.28 38.4 13.44 63.36 60.8-9.6-23.68-8.96-40.96-6.4-52.48 2.56-11.52 7.04-17.92 5.76-30.72-1.92-9.6-5.76-13.44-14.08-28.8-8.96-16-14.08-25.6-16.64-36.48-4.48-17.28-1.28-39.68 10.88-55.04 14.72-19.2 33.28-14.08 62.08-28.8 15.36-8.32 36.48-22.4 55.68-51.2z m0-10.24c-23.68 10.88-48 21.76-71.68 32.64-5.76 2.56-65.92 29.44-79.36 94.72-9.6 48 12.16 85.76 17.92 94.72-5.76-5.76-48.64-47.36-112-42.24-48.64 4.48-79.36 33.92-87.04 42.24-15.36 18.56-30.72 36.48-45.44 55.04l7.68 60.8c0.64 8.32 6.4 58.24 50.56 92.8 48 37.76 103.04 26.24 110.72 24.32-6.4 2.56-62.72 27.52-77.44 90.24-12.16 50.56 10.88 90.88 16 99.2 8.32 21.76 17.28 43.52 25.6 65.92 16 2.56 41.6 6.4 72.32 5.76 48-0.64 91.52-1.92 123.52-30.72 8.32-7.68 33.28-32.64 37.76-86.4 1.92 12.16 10.88 53.12 48 85.12 47.36 40.32 103.68 33.28 112.64 32l90.24-17.28c8.32-19.2 16.64-37.76 24.96-56.96 3.2-7.04 28.8-64.64-2.56-122.88-23.68-44.16-65.28-60.16-75.52-64 9.6 1.92 55.68 10.24 100.48-19.2 51.84-33.92 59.52-90.24 60.8-97.92 1.92-18.56 3.2-37.12 5.12-55.68l-42.88-60.16c-6.4-6.4-48.64-46.08-111.36-40.96-48 3.84-78.72 32-87.68 40.96 6.4-6.4 36.48-39.68 33.92-87.68-3.2-47.36-38.4-90.24-88.32-106.24-19.2-9.6-38.4-18.56-56.96-28.16z" fill="#f60605" p-id="2902" data-spm-anchor-id="a313x.7781069.0.i21" class=""></path><path d="M456.32 491.52c3.2 5.12 19.84 31.36 33.28 27.52 5.76-1.28 8.32-7.68 9.6-10.88 14.72-36.48 18.56-129.92 17.92-129.92-0.64 0 7.68 126.08 12.16 126.08 1.28 0 3.2-8.96 2.56-9.6-1.28-0.64-10.24 12.16-7.68 17.28 8.32 19.2 167.68-35.84 168.96-32 0.64 1.92-35.2 17.28-74.88 28.16-16.64 4.48-32 8.96-32 8.96-37.12 10.24-49.92 11.52-49.92 14.72 0 6.4 78.72 8.96 78.72 12.16 0 3.2-69.76-4.48-79.36 19.2-8.32 20.48 27.52 57.6 28.8 56.96 0.64-0.64-14.72-35.84-42.88-44.16-3.84-1.28-11.52-3.84-21.12-1.28-25.6 5.76-39.04 40.96-38.4 40.96 0.64 0.64 37.12-51.84 29.44-59.52-6.4-6.4-47.36 21.76-48 21.12 0-0.64 37.76-18.56 35.2-31.36-1.28-8.32-17.92-10.88-40.96-15.36-80-14.72-105.6-21.76-105.6-21.12 0 0.64 23.68 2.56 80 12.16 39.68 7.04 67.2 12.8 70.4 5.76 0.64-1.92-0.64-5.12-4.48-10.88a79.36 79.36 0 0 0-21.76-24.96z" fill="#fab755" p-id="2903" data-spm-anchor-id="a313x.7781069.0.i20" class=""></path></svg>